<svg width="524" height="285" viewBox="0 0 524 285" fill="none" xmlns="http://www.w3.org/2000/svg">
<path d="M244.912 158.265H161.508" stroke="black" stroke-width="15" stroke-linecap="round" stroke-linejoin="round"/>
<path d="M229.57 134.265H176.698" stroke="black" stroke-width="15" stroke-linecap="round" stroke-linejoin="round"/>
<path d="M215.545 109.266H190.622" stroke="black" stroke-width="15" stroke-linecap="round" stroke-linejoin="round"/>
<path d="M206.052 79.9747L247.76 7.73486" stroke="black" stroke-width="15" stroke-linecap="round" stroke-linejoin="round"/>
<path d="M235.102 77.6457L261.545 31.8613" stroke="black" stroke-width="15" stroke-linecap="round" stroke-linejoin="round"/>
<path d="M263.254 78.8862L275.722 57.3041" stroke="black" stroke-width="15" stroke-linecap="round" stroke-linejoin="round"/>
<path d="M293.292 85.4683L335 157.696" stroke="black" stroke-width="15" stroke-linecap="round" stroke-linejoin="round"/>
<path d="M280.773 111.785L307.215 157.569" stroke="black" stroke-width="15" stroke-linecap="round" stroke-linejoin="round"/>
<path d="M265.621 135.544L278.089 157.126" stroke="black" stroke-width="15" stroke-linecap="round" stroke-linejoin="round"/>
<path d="M28.256 235.624C29.856 235.624 31.4453 235.816 33.024 236.2V245.416C30.912 244.925 28.7573 244.68 26.56 244.68C24.384 244.68 22.4427 245.139 20.736 246.056C19.0293 246.973 17.6853 248.381 16.704 250.28C15.744 252.157 15.264 254.493 15.264 257.288V273H4.576V248.552L2.272 236.616H13.088L14.72 246.44C15.8933 243.069 17.6 240.424 19.84 238.504C22.08 236.584 24.8853 235.624 28.256 235.624ZM46.2875 258.152C47.0982 260.627 48.6768 262.536 51.0235 263.88C53.3702 265.224 56.3462 265.896 59.9515 265.896C62.7035 265.896 65.4662 265.501 68.2395 264.712C71.0128 263.923 73.4982 262.813 75.6955 261.384V268.552C73.2848 270.259 70.4795 271.592 67.2795 272.552C64.1008 273.491 60.7728 273.96 57.2955 273.96C52.9862 273.96 49.1248 273.16 45.7115 271.56C42.2982 269.939 39.6315 267.677 37.7115 264.776C35.7915 261.853 34.8315 258.493 34.8315 254.696C34.8315 250.963 35.7488 247.656 37.5835 244.776C39.4182 241.875 41.9675 239.624 45.2315 238.024C48.4955 236.424 52.1862 235.624 56.3035 235.624C60.4422 235.624 64.0475 236.552 67.1195 238.408C70.1915 240.243 72.5488 242.867 74.1915 246.28C75.8555 249.672 76.6875 253.629 76.6875 258.152H46.2875ZM56.3675 243.496C53.6582 243.496 51.3862 244.179 49.5515 245.544C47.7382 246.888 46.5435 248.723 45.9675 251.048H66.2875C65.6688 248.637 64.4955 246.781 62.7675 245.48C61.0608 244.157 58.9275 243.496 56.3675 243.496ZM115.291 236.616H125.979V263.304C125.979 267.784 124.976 271.613 122.971 274.792C120.987 277.992 118.192 280.413 114.587 282.056C110.982 283.699 106.8 284.52 102.043 284.52C98.779 284.52 95.739 284.093 92.923 283.24C90.107 282.408 87.3337 281.107 84.603 279.336V270.952C89.467 274.664 95.0563 276.52 101.371 276.52C105.915 276.52 109.371 275.464 111.739 273.352C114.107 271.261 115.291 268.125 115.291 263.944V261.96C113.392 264.243 111.024 266.099 108.187 267.528C105.35 268.957 102.203 269.672 98.747 269.672C95.3977 269.672 92.3683 268.968 89.659 267.56C86.971 266.131 84.859 264.125 83.323 261.544C81.787 258.963 81.019 255.997 81.019 252.648C81.019 249.299 81.787 246.333 83.323 243.752C84.859 241.171 86.971 239.176 89.659 237.768C92.3683 236.339 95.3977 235.624 98.747 235.624C102.203 235.624 105.339 236.371 108.155 237.864C110.992 239.336 113.371 241.256 115.291 243.624V236.616ZM102.235 262.152C107.91 262.152 112.39 258.984 115.675 252.648C112.39 246.291 107.91 243.112 102.235 243.112C100.08 243.112 98.2137 243.507 96.635 244.296C95.0777 245.085 93.883 246.205 93.051 247.656C92.219 249.085 91.803 250.749 91.803 252.648C91.803 254.547 92.2083 256.211 93.019 257.64C93.851 259.069 95.0457 260.179 96.603 260.968C98.1817 261.757 100.059 262.152 102.235 262.152ZM143.413 258.152C144.223 260.627 145.802 262.536 148.149 263.88C150.495 265.224 153.471 265.896 157.077 265.896C159.829 265.896 162.591 265.501 165.365 264.712C168.138 263.923 170.623 262.813 172.821 261.384V268.552C170.41 270.259 167.605 271.592 164.405 272.552C161.226 273.491 157.898 273.96 154.421 273.96C150.111 273.96 146.25 273.16 142.837 271.56C139.423 269.939 136.757 267.677 134.837 264.776C132.917 261.853 131.957 258.493 131.957 254.696C131.957 250.963 132.874 247.656 134.709 244.776C136.543 241.875 139.093 239.624 142.357 238.024C145.621 236.424 149.311 235.624 153.429 235.624C157.567 235.624 161.173 236.552 164.245 238.408C167.317 240.243 169.674 242.867 171.317 246.28C172.981 249.672 173.813 253.629 173.813 258.152H143.413ZM153.493 243.496C150.783 243.496 148.511 244.179 146.677 245.544C144.863 246.888 143.669 248.723 143.093 251.048H163.413C162.794 248.637 161.621 246.781 159.893 245.48C158.186 244.157 156.053 243.496 153.493 243.496ZM205.059 235.624C208.494 235.624 211.427 236.317 213.859 237.704C216.312 239.069 218.179 241.043 219.459 243.624C220.739 246.184 221.379 249.224 221.379 252.744V273H210.691V254.376C210.691 251.133 209.891 248.659 208.291 246.952C206.712 245.245 204.43 244.392 201.443 244.392C199.352 244.392 197.528 244.851 195.971 245.768C194.435 246.664 193.24 247.944 192.387 249.608C191.555 251.251 191.139 253.171 191.139 255.368V273H180.451V248.84L178.147 236.616H188.867L190.211 244.776C191.726 241.832 193.774 239.571 196.355 237.992C198.958 236.413 201.859 235.624 205.059 235.624ZM253.483 235.624C256.896 235.624 259.83 236.317 262.283 237.704C264.736 239.069 266.603 241.043 267.883 243.624C269.184 246.184 269.835 249.224 269.835 252.744V273H259.115V254.376C259.115 251.133 258.315 248.659 256.715 246.952C255.136 245.245 252.854 244.392 249.867 244.392C247.798 244.392 245.984 244.851 244.427 245.768C242.891 246.664 241.696 247.944 240.843 249.608C240.011 251.251 239.595 253.171 239.595 255.368V273H228.875V223.72H239.595V243.112C241.195 240.68 243.19 238.824 245.579 237.544C247.968 236.264 250.603 235.624 253.483 235.624ZM319.327 273H308.639L307.327 264.904C305.812 267.805 303.796 270.045 301.279 271.624C298.762 273.181 295.946 273.96 292.831 273.96C289.503 273.96 286.644 273.277 284.255 271.912C281.866 270.525 280.042 268.552 278.783 265.992C277.524 263.411 276.895 260.36 276.895 256.84V236.616H287.583V255.272C287.583 258.493 288.34 260.957 289.855 262.664C291.391 264.349 293.588 265.192 296.447 265.192C298.495 265.192 300.266 264.755 301.759 263.88C303.252 262.984 304.394 261.715 305.183 260.072C305.994 258.408 306.399 256.456 306.399 254.216V236.616H317.087V260.808L319.327 273ZM352.472 235.624C355.992 235.624 359.117 236.424 361.848 238.024C364.6 239.624 366.733 241.885 368.248 244.808C369.784 247.709 370.552 251.048 370.552 254.824C370.552 258.579 369.784 261.907 368.248 264.808C366.733 267.709 364.6 269.96 361.848 271.56C359.117 273.16 355.992 273.96 352.472 273.96C349.101 273.96 346.04 273.171 343.288 271.592C340.536 269.992 338.242 267.741 336.408 264.84V273H325.688V223.72H336.408V244.648C338.242 241.768 340.536 239.549 343.288 237.992C346.04 236.413 349.101 235.624 352.472 235.624ZM349.496 265.64C351.458 265.64 353.218 265.181 354.776 264.264C356.333 263.347 357.549 262.067 358.424 260.424C359.298 258.781 359.736 256.915 359.736 254.824C359.736 252.733 359.298 250.867 358.424 249.224C357.549 247.56 356.333 246.269 354.776 245.352C353.218 244.413 351.458 243.944 349.496 243.944C347.512 243.944 345.624 244.413 343.832 245.352C342.061 246.269 340.493 247.549 339.128 249.192C337.762 250.835 336.696 252.712 335.928 254.824C336.696 256.936 337.762 258.813 339.128 260.456C340.493 262.077 342.061 263.347 343.832 264.264C345.624 265.181 347.512 265.64 349.496 265.64ZM381.178 273.576C380.005 273.576 378.938 273.299 377.978 272.744C377.018 272.189 376.261 271.432 375.706 270.472C375.151 269.512 374.874 268.445 374.874 267.272C374.874 266.12 375.151 265.064 375.706 264.104C376.261 263.123 377.018 262.355 377.978 261.8C378.938 261.245 380.005 260.968 381.178 260.968C382.351 260.968 383.418 261.245 384.378 261.8C385.338 262.355 386.095 263.123 386.65 264.104C387.205 265.064 387.482 266.12 387.482 267.272C387.482 268.445 387.205 269.512 386.65 270.472C386.095 271.432 385.338 272.189 384.378 272.744C383.418 273.299 382.351 273.576 381.178 273.576ZM418.669 254.312L434.445 273H422.253L411.821 260.616L401.485 273H389.549L405.101 254.408L390.541 236.616H402.573L412.109 248.072L421.645 236.616H433.421L418.669 254.312ZM469.941 236.616H481.301L463.157 274.632C461.535 278.088 459.434 280.595 456.853 282.152C454.271 283.731 451.381 284.52 448.181 284.52C445.813 284.52 443.669 284.232 441.749 283.656C439.829 283.08 437.994 282.195 436.245 281V273.288C438.101 274.461 439.829 275.293 441.429 275.784C443.029 276.296 444.799 276.552 446.741 276.552C448.597 276.552 450.186 276.136 451.509 275.304C452.853 274.493 453.941 273.128 454.773 271.208L454.997 270.728H450.485L434.389 236.616H446.165L457.973 263.912L469.941 236.616ZM521.416 244.168L496.936 265.096H521.544V273H483.4V265.448L507.944 244.488H483.624V236.616H521.416V244.168Z" fill="black"/>
</svg>
